<svg width="18" height="18" viewBox="0 0 18 18" fill="none" xmlns="http://www.w3.org/2000/svg">
<path d="M3.58317 13.5837H2.33317V4.41699H8.83317L8.1665 5.08366C7.99984 5.25033 7.9165 5.41699 7.9165 5.66699C7.9165 6.16699 8.24984 6.50033 8.74984 6.50033C8.99984 6.50033 9.1665 6.41699 9.33317 6.25033L11.4165 4.16699C11.7498 3.83366 11.7498 3.33366 11.4165 3.00033L9.33317 0.916992C8.99984 0.583659 8.49984 0.583659 8.1665 0.916992C7.83317 1.25033 7.83317 1.75033 8.1665 2.08366L8.83317 2.75033H1.49984C0.999837 2.75033 0.666504 3.08366 0.666504 3.58366V14.417C0.666504 14.917 0.999837 15.2503 1.49984 15.2503H3.58317C4.08317 15.2503 4.4165 14.917 4.4165 14.417C4.4165 13.917 4.08317 13.5837 3.58317 13.5837ZM16.4998 2.75033H14.4165C13.9165 2.75033 13.5832 3.08366 13.5832 3.58366C13.5832 4.08366 13.9165 4.41699 14.4165 4.41699H15.6665V13.5837H8.6665L9.33317 12.917C9.6665 12.5837 9.6665 12.0837 9.33317 11.7503C8.99984 11.417 8.49984 11.417 8.1665 11.7503L6.08317 13.8337C5.74984 14.167 5.74984 14.667 6.08317 15.0003L8.1665 17.0837C8.33317 17.2503 8.49984 17.3337 8.74984 17.3337C8.99984 17.3337 9.1665 17.2503 9.33317 17.0837C9.6665 16.7503 9.6665 16.2503 9.33317 15.917L8.6665 15.2503H16.4998C16.9998 15.2503 17.3332 14.917 17.3332 14.417V3.58366C17.3332 3.08366 16.9998 2.75033 16.4998 2.75033Z" fill="#72767C"/>
</svg>
