<svg width="14" height="14" viewBox="0 0 14 14" fill="none" xmlns="http://www.w3.org/2000/svg">
<path d="M8.33736 6.33687H7.6707V5.67021C7.6707 5.4934 7.60046 5.32383 7.47543 5.1988C7.35041 5.07378 7.18084 5.00354 7.00403 5.00354C6.82722 5.00354 6.65765 5.07378 6.53262 5.1988C6.4076 5.32383 6.33736 5.4934 6.33736 5.67021V6.33687H5.6707C5.49388 6.33687 5.32432 6.40711 5.19929 6.53214C5.07427 6.65716 5.00403 6.82673 5.00403 7.00354C5.00403 7.18035 5.07427 7.34992 5.19929 7.47494C5.32432 7.59997 5.49388 7.67021 5.6707 7.67021H6.33736V8.33687C6.33736 8.51368 6.4076 8.68325 6.53262 8.80828C6.65765 8.9333 6.82722 9.00354 7.00403 9.00354C7.18084 9.00354 7.35041 8.9333 7.47543 8.80828C7.60046 8.68325 7.6707 8.51368 7.6707 8.33687V7.67021H8.33736C8.51417 7.67021 8.68374 7.59997 8.80877 7.47494C8.93379 7.34992 9.00403 7.18035 9.00403 7.00354C9.00403 6.82673 8.93379 6.65716 8.80877 6.53214C8.68374 6.40711 8.51417 6.33687 8.33736 6.33687ZM13.4774 6.53021L11.9107 5.00354V2.76354C11.9107 2.58673 11.8405 2.41716 11.7154 2.29214C11.5904 2.16711 11.4208 2.09687 11.244 2.09687H9.03736L7.47736 0.530207C7.41539 0.467721 7.34165 0.418125 7.26041 0.384279C7.17917 0.350433 7.09204 0.333008 7.00403 0.333008C6.91602 0.333008 6.82888 0.350433 6.74764 0.384279C6.6664 0.418125 6.59267 0.467721 6.53069 0.530207L5.00403 2.09687H2.76403C2.58722 2.09687 2.41765 2.16711 2.29262 2.29214C2.1676 2.41716 2.09736 2.58673 2.09736 2.76354V5.00354L0.530695 6.53021C0.468209 6.59218 0.418613 6.66592 0.384767 6.74716C0.350922 6.8284 0.333496 6.91553 0.333496 7.00354C0.333496 7.09155 0.350922 7.17869 0.384767 7.25992C0.418613 7.34116 0.468209 7.4149 0.530695 7.47687L2.09736 9.03687V11.2435C2.09736 11.4204 2.1676 11.5899 2.29262 11.7149C2.41765 11.84 2.58722 11.9102 2.76403 11.9102H5.00403L6.56403 13.4769C6.626 13.5394 6.69974 13.589 6.78098 13.6228C6.86222 13.6566 6.94935 13.6741 7.03736 13.6741C7.12537 13.6741 7.21251 13.6566 7.29375 13.6228C7.37499 13.589 7.44872 13.5394 7.5107 13.4769L9.0707 11.9102H11.2774C11.4542 11.9102 11.6237 11.84 11.7488 11.7149C11.8738 11.5899 11.944 11.4204 11.944 11.2435V9.03687L13.5107 7.47687C13.571 7.41272 13.6181 7.33725 13.6491 7.25482C13.6801 7.17238 13.6945 7.08461 13.6914 6.99659C13.6883 6.90857 13.6678 6.82203 13.6311 6.74198C13.5943 6.66193 13.5421 6.58995 13.4774 6.53021ZM10.7774 8.29021C10.7144 8.35195 10.6643 8.42558 10.6299 8.50683C10.5956 8.58808 10.5777 8.67534 10.5774 8.76354V10.5769H8.76403C8.67582 10.5772 8.58857 10.5951 8.50732 10.6294C8.42607 10.6638 8.35244 10.7139 8.2907 10.7769L7.00403 12.0635L5.71736 10.7769C5.65562 10.7139 5.58199 10.6638 5.50074 10.6294C5.41949 10.5951 5.33223 10.5772 5.24403 10.5769H3.4307V8.76354C3.43033 8.67534 3.41246 8.58808 3.37813 8.50683C3.3438 8.42558 3.29369 8.35195 3.2307 8.29021L1.94403 7.00354L3.2307 5.71687C3.29369 5.65513 3.3438 5.5815 3.37813 5.50025C3.41246 5.419 3.43033 5.33174 3.4307 5.24354V3.43021H5.24403C5.33223 3.42984 5.41949 3.41197 5.50074 3.37764C5.58199 3.34331 5.65562 3.2932 5.71736 3.23021L7.00403 1.94354L8.2907 3.23021C8.35244 3.2932 8.42607 3.34331 8.50732 3.37764C8.58857 3.41197 8.67582 3.42984 8.76403 3.43021H10.5774V5.24354C10.5777 5.33174 10.5956 5.419 10.6299 5.50025C10.6643 5.5815 10.7144 5.65513 10.7774 5.71687L12.064 7.00354L10.7774 8.29021Z" fill="#72767C"/>
</svg>
