<svg width="12" height="14" viewBox="0 0 12 14" fill="none" xmlns="http://www.w3.org/2000/svg">
<path d="M11.2252 5.38708C11.1699 5.27741 11.0853 5.18518 10.9809 5.12063C10.8764 5.05607 10.7561 5.0217 10.6333 5.02133H7.3083V1.03132C7.31544 0.885474 7.27438 0.741334 7.19145 0.621148C7.10852 0.500961 6.98834 0.411411 6.84945 0.366319C6.71594 0.322391 6.57194 0.321897 6.43812 0.364909C6.30431 0.40792 6.18757 0.492225 6.10465 0.605719L0.784644 7.92073C0.717988 8.01707 0.677964 8.1293 0.668622 8.24608C0.65928 8.36285 0.680952 8.48002 0.731444 8.58573C0.777942 8.70659 0.858718 8.81125 0.963855 8.88686C1.06899 8.96246 1.19392 9.00572 1.3233 9.01133H4.6483V13.0013C4.6484 13.1416 4.69283 13.2782 4.77525 13.3916C4.85766 13.5051 4.97383 13.5896 5.10715 13.6331C5.17396 13.6538 5.24336 13.665 5.3133 13.6663C5.41823 13.6666 5.52173 13.6421 5.61535 13.5947C5.70897 13.5473 5.79004 13.4784 5.85195 13.3937L11.172 6.07868C11.2436 5.97946 11.2865 5.86239 11.2959 5.74036C11.3053 5.61834 11.2808 5.49609 11.2252 5.38708ZM5.9783 10.9531V8.34633C5.9783 8.16996 5.90824 8.00082 5.78353 7.8761C5.65882 7.75139 5.48967 7.68133 5.3133 7.68133H2.6533L5.9783 3.07952V5.68633C5.9783 5.8627 6.04836 6.03184 6.17308 6.15655C6.29779 6.28127 6.46693 6.35133 6.6433 6.35133H9.30331L5.9783 10.9531Z" fill="#72767C"/>
</svg>
