<svg width="21" height="21" viewBox="0 0 21 21" fill="none" xmlns="http://www.w3.org/2000/svg">
<path d="M6.5 4H4.7C6.2 2.7 8 2 10 2C10.3 2 10.6 2 10.9 2.1C11.4 2.2 11.9 1.8 12 1.2C12.1 0.7 11.7 0.2 11.1 0.0999999C10.7 -9.68575e-08 10.4 0 10 0C7.6 0 5.3 0.9 3.5 2.4V1C3.5 0.4 3.1 0 2.5 0C1.9 0 1.5 0.4 1.5 1V5C1.5 5.6 1.9 6 2.5 6H6.5C7.1 6 7.5 5.6 7.5 5C7.5 4.4 7.1 4 6.5 4ZM5 12.5C4.4 12.5 4 12.9 4 13.5V15.3C2.7 13.8 2 12 2 10C2 9.7 2 9.4 2.1 9.1C2.2 8.6 1.8 8.1 1.2 8C0.7 7.9 0.2 8.3 0.0999999 8.9C-9.68575e-08 9.3 0 9.6 0 10C0 12.4 0.9 14.7 2.4 16.5H1C0.4 16.5 0 16.9 0 17.5C0 18.1 0.4 18.5 1 18.5H5C5.3 18.5 5.6 18.3 5.8 18.1C5.8 18 5.9 17.9 5.9 17.8C5.9 17.7 5.9 17.7 5.9 17.6V17.5V13.5C6 12.9 5.6 12.5 5 12.5ZM19 3.5C19.6 3.5 20 3.1 20 2.5C20 1.9 19.6 1.5 19 1.5H15C14.9 1.5 14.9 1.5 14.8 1.5C14.7 1.5 14.6 1.6 14.5 1.6C14.4 1.7 14.3 1.7 14.3 1.8C14.3 1.9 14.2 2 14.2 2C14.2 2.1 14.2 2.1 14.2 2.2V2.3V6.3C14.2 6.9 14.6 7.3 15.2 7.3C15.8 7.3 16.2 6.9 16.2 6.3V4.7C17.5 6.1 18.2 8 18.2 10C18.2 10.3 18.2 10.6 18.1 10.9C18 11.4 18.4 11.9 19 12H19.1C19.6 12 20 11.6 20.1 11.1C20.1 10.7 20.2 10.4 20.2 10C20.2 7.6 19.3 5.3 17.8 3.5H19ZM18.3 14.5C18.2 14.4 18.1 14.3 18 14.2C17.9 14.1 17.8 14.1 17.7 14.1H17.6H17.5H13.5C12.9 14.1 12.5 14.5 12.5 15.1C12.5 15.7 12.9 16.1 13.5 16.1H15.3C13.9 17.4 12 18.1 10 18.1C9.7 18.1 9.4 18.1 9.1 18C8.6 17.9 8.1 18.3 8 18.9C7.9 19.5 8.3 19.9 8.9 20C9.3 20 9.6 20.1 10 20.1C12.4 20.1 14.7 19.2 16.5 17.7V19C16.5 19.6 16.9 20 17.5 20C18.1 20 18.5 19.6 18.5 19V15C18.5 14.8 18.4 14.6 18.3 14.5Z" fill="#72767C"/>
</svg>
