<svg width="18" height="17" viewBox="0 0 18 17" fill="none" xmlns="http://www.w3.org/2000/svg">
<path d="M12.0382 9.09657C12.8552 8.45379 13.4515 7.57234 13.7442 6.57486C14.0369 5.57737 14.0115 4.51346 13.6714 3.53113C13.3312 2.5488 12.6934 1.6969 11.8466 1.09395C10.9998 0.491005 9.98607 0.166992 8.94653 0.166992C7.90699 0.166992 6.89329 0.491005 6.04647 1.09395C5.19965 1.6969 4.56182 2.5488 4.22171 3.53113C3.8816 4.51346 3.85612 5.57737 4.14883 6.57486C4.44154 7.57234 5.03787 8.45379 5.85486 9.09657C4.45493 9.65744 3.23344 10.5877 2.32061 11.7882C1.40778 12.9886 0.837833 14.4143 0.67153 15.9132C0.659493 16.0227 0.669128 16.1334 0.699885 16.2391C0.730642 16.3448 0.78192 16.4434 0.85079 16.5293C0.98988 16.7028 1.19218 16.8139 1.4132 16.8382C1.63421 16.8626 1.85583 16.7981 2.0293 16.659C2.20277 16.5199 2.31389 16.3176 2.3382 16.0966C2.52118 14.4676 3.29794 12.9631 4.52005 11.8706C5.74216 10.778 7.32395 10.1741 8.9632 10.1741C10.6024 10.1741 12.1842 10.778 13.4063 11.8706C14.6285 12.9631 15.4052 14.4676 15.5882 16.0966C15.6109 16.3013 15.7086 16.4905 15.8625 16.6274C16.0163 16.7644 16.2155 16.8395 16.4215 16.8382H16.5132C16.7316 16.8131 16.9313 16.7027 17.0687 16.5309C17.206 16.3592 17.27 16.1402 17.2465 15.9216C17.0794 14.4184 16.5064 12.9891 15.5889 11.7867C14.6714 10.5844 13.444 9.65447 12.0382 9.09657ZM8.94653 8.50491C8.28726 8.50491 7.64279 8.30941 7.09463 7.94314C6.54647 7.57687 6.11922 7.05627 5.86693 6.44718C5.61464 5.8381 5.54863 5.16787 5.67725 4.52127C5.80586 3.87467 6.12333 3.28072 6.58951 2.81455C7.05568 2.34837 7.64963 2.03091 8.29623 1.90229C8.94283 1.77367 9.61306 1.83968 10.2221 2.09197C10.8312 2.34427 11.3518 2.77151 11.7181 3.31967C12.0844 3.86784 12.2799 4.5123 12.2799 5.17157C12.2799 6.05563 11.9287 6.90347 11.3036 7.5286C10.6784 8.15372 9.83059 8.50491 8.94653 8.50491Z" fill="#A162F7"/>
</svg>
