<svg width="18" height="18" viewBox="0 0 18 18" fill="none" xmlns="http://www.w3.org/2000/svg">
<path fill-rule="evenodd" clip-rule="evenodd" d="M15.6244 4.909C15.6331 4.25809 15.3891 3.60444 14.8924 3.10777C14.3957 2.6111 13.7421 2.3671 13.0912 2.37576C13.0909 2.37576 13.0914 2.37576 13.0912 2.37576C12.7314 2.38065 12.3717 2.46274 12.0407 2.622C11.922 2.67908 11.8069 2.74607 11.6967 2.82297C11.6542 2.85259 11.5995 2.85934 11.5517 2.83951C11.5039 2.8197 11.47 2.77627 11.4609 2.72534C11.4374 2.59299 11.4034 2.46424 11.3598 2.33998C11.2383 1.99325 11.0426 1.68143 10.7916 1.42358C10.7915 1.4234 10.7918 1.42375 10.7916 1.42358C10.3375 0.957186 9.70223 0.666992 8.99984 0.666992C8.29744 0.666992 7.66271 0.956658 7.20857 1.42305C7.2084 1.42322 7.20874 1.42287 7.20857 1.42305C6.95763 1.6809 6.76137 1.99325 6.63987 2.33998C6.59632 2.46424 6.56232 2.59299 6.53873 2.72534C6.52965 2.77626 6.49574 2.8197 6.44796 2.83951C6.40014 2.85934 6.34548 2.85259 6.30302 2.82297C6.19275 2.74607 6.07767 2.67908 5.95902 2.622C5.62793 2.46274 5.26902 2.38066 4.90925 2.37577C4.909 2.37577 4.90949 2.37577 4.90925 2.37577C4.25833 2.36711 3.60395 2.6111 3.10728 3.10777C2.61061 3.60444 2.36661 4.25809 2.37527 4.909C2.37528 4.90925 2.37527 4.90876 2.37527 4.909C2.38016 5.26877 2.46225 5.62841 2.62151 5.9595C2.67859 6.07816 2.74558 6.19324 2.82248 6.3035C2.8521 6.34597 2.85886 6.40062 2.83902 6.44845C2.81921 6.49623 2.77578 6.53014 2.72485 6.53922C2.59249 6.56281 2.46375 6.59682 2.33948 6.64036C1.99276 6.76186 1.68094 6.95761 1.42309 7.20854C1.42291 7.20871 1.42326 7.20837 1.42309 7.20854C0.956698 7.66268 0.666504 8.29793 0.666504 9.00033C0.666504 9.70272 0.956171 10.3375 1.42256 10.7916C1.42274 10.7918 1.42239 10.7914 1.42256 10.7916C1.68041 11.0425 1.99276 11.2388 2.33948 11.3603C2.46374 11.4038 2.59249 11.4378 2.72485 11.4614C2.77578 11.4705 2.81921 11.5044 2.83902 11.5522C2.85886 11.6 2.8521 11.6547 2.82248 11.6971C2.74558 11.8074 2.67859 11.9225 2.62151 12.0412C2.46225 12.3722 2.38017 12.7312 2.37528 13.0909C2.37528 13.0912 2.37529 13.0907 2.37528 13.0909C2.36662 13.7418 2.61061 14.3962 3.10728 14.8929C3.60395 15.3896 4.2576 15.6336 4.90852 15.6249C4.90876 15.6249 4.90827 15.6249 4.90852 15.6249C5.26828 15.62 5.62792 15.5379 5.959 15.3787C6.07766 15.3216 6.19274 15.2546 6.30301 15.1777C6.34548 15.1481 6.40013 15.1413 6.44796 15.1611C6.49574 15.181 6.52965 15.2244 6.53873 15.2753C6.56232 15.4077 6.59633 15.5364 6.63988 15.6607C6.76137 16.0074 6.95712 16.3192 7.20805 16.5771C7.20822 16.5773 7.20788 16.5769 7.20805 16.5771C7.66219 17.0435 8.29744 17.3337 8.99984 17.3337C9.70223 17.3337 10.337 17.044 10.7911 16.5776C10.7913 16.5774 10.7909 16.5778 10.7911 16.5776C11.042 16.3198 11.2383 16.0074 11.3598 15.6607C11.4033 15.5364 11.4374 15.4077 11.4609 15.2753C11.47 15.2244 11.5039 15.181 11.5517 15.1611C11.5995 15.1413 11.6542 15.1481 11.6967 15.1777C11.8069 15.2546 11.922 15.3216 12.0407 15.3787C12.3718 15.5379 12.7307 15.62 13.0904 15.6249C13.0907 15.6249 13.0902 15.6249 13.0904 15.6249C13.7413 15.6335 14.3957 15.3896 14.8924 14.8929C15.3891 14.3962 15.6331 13.7426 15.6244 13.0916C15.6244 13.0914 15.6244 13.0919 15.6244 13.0916C15.6195 12.7319 15.5374 12.3722 15.3782 12.0412C15.3211 11.9225 15.2541 11.8074 15.1772 11.6971C15.1476 11.6547 15.1408 11.6 15.1607 11.5522C15.1805 11.5044 15.2239 11.4705 15.2748 11.4614C15.4072 11.4378 15.5359 11.4038 15.6602 11.3603C16.0069 11.2388 16.3187 11.043 16.5766 10.7921C16.5768 10.7919 16.5764 10.7923 16.5766 10.7921C17.043 10.338 17.3332 9.70272 17.3332 9.00033C17.3332 8.29793 17.0435 7.6632 16.5771 7.20905C16.5769 7.20888 16.5773 7.20922 16.5771 7.20905C16.3193 6.95812 16.0069 6.76186 15.6602 6.64036C15.5359 6.59682 15.4072 6.56281 15.2748 6.53922C15.2239 6.53014 15.1805 6.49623 15.1607 6.44845C15.1408 6.40062 15.1476 6.34597 15.1772 6.3035C15.2541 6.19323 15.3211 6.07815 15.3782 5.95949C15.5374 5.62841 15.6195 5.26876 15.6244 4.909C15.6244 4.90925 15.6244 4.90876 15.6244 4.909ZM13.7139 4.28628C13.4252 3.9976 12.9741 3.96402 12.6501 4.19001C12.1585 4.53286 11.5056 4.62468 10.9133 4.37906C10.3225 4.13408 9.92544 3.60853 9.82015 3.01781C9.75082 2.6289 9.4081 2.33366 8.99984 2.33366C8.59158 2.33366 8.24885 2.6289 8.17953 3.01781C8.07423 3.60852 7.67715 4.13408 7.08637 4.37906C6.49407 4.62467 5.8412 4.53286 5.34961 4.19C5.02559 3.96402 4.57447 3.9976 4.28579 4.28628C3.99711 4.57496 3.96354 5.02607 4.18952 5.35009C4.53237 5.8417 4.62418 6.49456 4.37857 7.08686C4.13359 7.67763 3.60804 8.07472 3.01732 8.18002C2.62841 8.24934 2.33317 8.59207 2.33317 9.00033C2.33317 9.40858 2.62841 9.75131 3.01732 9.82063C3.60804 9.92593 4.13359 10.323 4.37857 10.9138C4.62419 11.5061 4.53237 12.159 4.18952 12.6506C3.96354 12.9746 3.99711 13.4257 4.28579 13.7144C4.57448 14.0031 5.02558 14.0366 5.3496 13.8106C5.8412 13.4678 6.49406 13.376 7.08637 13.6216C7.67714 13.8666 8.07424 14.3921 8.17953 14.9828C8.24886 15.3717 8.59158 15.667 8.99984 15.667C9.4081 15.667 9.75082 15.3717 9.82014 14.9828C9.92544 14.3921 10.3225 13.8666 10.9133 13.6216C11.5056 13.376 12.1585 13.4678 12.6501 13.8106C12.9741 14.0366 13.4252 14.0031 13.7139 13.7144C14.0026 13.4257 14.0361 12.9746 13.8102 12.6506C13.4673 12.159 13.3755 11.5061 13.6211 10.9138C13.8661 10.323 14.3916 9.92593 14.9824 9.82063C15.3713 9.75131 15.6665 9.40859 15.6665 9.00033C15.6665 8.59207 15.3713 8.24934 14.9824 8.18002C14.3916 8.07472 13.8661 7.67763 13.6211 7.08686C13.3755 6.49455 13.4673 5.84169 13.8102 5.35009C14.0361 5.02607 14.0026 4.57496 13.7139 4.28628Z" fill="#72767C"/>
</svg>
