<svg width="112" height="113" viewBox="0 0 112 113" fill="none" xmlns="http://www.w3.org/2000/svg">
<path d="M95.6591 87.6017C98.0928 89.5103 101.64 89.0975 103.296 86.4855C108.06 78.9714 110.98 70.4056 111.777 61.4906C112.742 50.7102 110.562 39.8814 105.501 30.3142C100.439 20.747 92.7144 12.8514 83.2599 7.58276C73.8055 2.31411 63.0268 -0.101856 52.228 0.627182C41.4292 1.35622 31.073 5.19902 22.4125 11.6906C13.752 18.1822 7.15823 27.0445 3.42902 37.2051C-0.300193 47.3658 -1.00505 58.3894 1.39972 68.9423C3.3884 77.6691 7.43321 85.7648 13.1639 92.5704C15.156 94.9361 18.7261 94.8684 20.8812 92.6501C23.0362 90.4317 22.9529 86.9055 21.0205 84.4907C16.8115 79.2307 13.8272 73.0689 12.3198 66.4538C10.396 58.0115 10.9598 49.1926 13.9432 41.0641C16.9266 32.9356 22.2016 25.8458 29.13 20.6525C36.0584 15.4592 44.3433 12.385 52.9824 11.8017C61.6214 11.2185 70.2444 13.1513 77.8079 17.3662C85.3715 21.5811 91.5516 27.8976 95.6004 35.5514C99.6493 43.2051 101.393 51.8682 100.622 60.4925C100.017 67.2502 97.8882 73.7571 94.4243 79.5351C92.8341 82.1878 93.2254 85.6932 95.6591 87.6017Z" fill="#F4F5F9"/>
<path d="M20.8528 92.6224C18.6959 94.8391 15.1258 94.9041 13.1356 92.5367C6.77094 84.9663 2.50222 75.8165 0.812389 66.0041C-1.19539 54.3454 0.5406 42.3504 5.77139 31.7394C11.0022 21.1284 19.459 12.4465 29.9291 6.93887C38.7411 2.30343 48.5981 0.116978 58.4788 0.554831C61.5685 0.691751 63.6912 3.56302 63.2465 6.62368C62.8018 9.68434 59.9558 11.7679 56.8635 11.7083C49.3357 11.5631 41.86 13.3178 35.1432 16.8511C26.7672 21.2572 20.0017 28.2027 15.8171 36.6915C11.6325 45.1804 10.2437 54.7764 11.8499 64.1033C13.1379 71.5825 16.2989 78.5806 20.9985 84.4631C22.9289 86.8795 23.0096 90.4058 20.8528 92.6224Z" fill="#FF7E86"/>
<path d="M24.456 60.5V47.204L21.696 47.852V45.5L25.752 43.7H27.648V60.5H24.456ZM36.9294 60.788C35.6974 60.788 34.6334 60.572 33.7374 60.14C32.8574 59.708 32.1614 59.116 31.6494 58.364C31.1534 57.596 30.8654 56.732 30.7854 55.772H33.7854C33.9294 56.46 34.2814 57.036 34.8414 57.5C35.4014 57.948 36.0974 58.172 36.9294 58.172C37.8254 58.172 38.5534 57.844 39.1134 57.188C39.6894 56.532 39.9774 55.716 39.9774 54.74C39.9774 53.732 39.6894 52.932 39.1134 52.34C38.5534 51.748 37.8414 51.452 36.9774 51.452C36.2574 51.452 35.6334 51.628 35.1054 51.98C34.5774 52.332 34.2014 52.772 33.9774 53.3H31.0254L32.4654 43.7H41.7774V46.388H34.7694L34.0014 50.276C34.3534 49.892 34.8334 49.58 35.4414 49.34C36.0494 49.084 36.7294 48.956 37.4814 48.956C38.6814 48.956 39.6814 49.228 40.4814 49.772C41.2814 50.3 41.8894 51.004 42.3054 51.884C42.7214 52.748 42.9294 53.692 42.9294 54.716C42.9294 55.884 42.6734 56.924 42.1614 57.836C41.6654 58.748 40.9614 59.468 40.0494 59.996C39.1534 60.524 38.1134 60.788 36.9294 60.788ZM46.5373 60.5L52.8733 46.316H44.5933V43.7H56.0413V45.884L49.7293 60.5H46.5373ZM58.3256 60.5V43.22H61.3976V53.42L65.6216 48.596H69.2696L64.3976 54.02L70.0616 60.5H66.2216L61.3976 54.524V60.5H58.3256ZM75.4943 51.956C74.7263 51.956 74.0303 51.788 73.4062 51.452C72.7823 51.1 72.2863 50.604 71.9183 49.964C71.5503 49.324 71.3663 48.564 71.3663 47.684C71.3663 46.804 71.5503 46.044 71.9183 45.404C72.2863 44.764 72.7823 44.276 73.4062 43.94C74.0303 43.588 74.7343 43.412 75.5183 43.412C76.2863 43.412 76.9743 43.588 77.5823 43.94C78.2063 44.276 78.7023 44.764 79.0703 45.404C79.4383 46.044 79.6223 46.804 79.6223 47.684C79.6223 48.564 79.4383 49.324 79.0703 49.964C78.7023 50.604 78.2063 51.1 77.5823 51.452C76.9583 51.788 76.2623 51.956 75.4943 51.956ZM74.5823 60.5L84.0623 43.7H87.0623L77.5823 60.5H74.5823ZM75.4943 49.82C75.9583 49.82 76.3583 49.644 76.6943 49.292C77.0303 48.924 77.1983 48.388 77.1983 47.684C77.1983 46.98 77.0303 46.444 76.6943 46.076C76.3743 45.708 75.9743 45.524 75.4943 45.524C75.0143 45.524 74.6063 45.708 74.2703 46.076C73.9503 46.444 73.7903 46.98 73.7903 47.684C73.7903 48.388 73.9503 48.924 74.2703 49.292C74.6063 49.644 75.0143 49.82 75.4943 49.82ZM86.2463 60.788C85.4783 60.788 84.7823 60.62 84.1583 60.284C83.5343 59.932 83.0383 59.436 82.6703 58.796C82.3023 58.156 82.1183 57.396 82.1183 56.516C82.1183 55.636 82.3023 54.884 82.6703 54.26C83.0383 53.62 83.5343 53.132 84.1583 52.796C84.7823 52.444 85.4863 52.268 86.2703 52.268C87.0383 52.268 87.7263 52.444 88.3343 52.796C88.9583 53.132 89.4543 53.62 89.8223 54.26C90.1903 54.884 90.3743 55.636 90.3743 56.516C90.3743 57.396 90.1903 58.156 89.8223 58.796C89.4543 59.436 88.9583 59.932 88.3343 60.284C87.7263 60.62 87.0303 60.788 86.2463 60.788ZM86.2463 58.652C86.7263 58.652 87.1263 58.476 87.4463 58.124C87.7823 57.756 87.9503 57.22 87.9503 56.516C87.9503 55.812 87.7823 55.276 87.4463 54.908C87.1263 54.54 86.7263 54.356 86.2463 54.356C85.7663 54.356 85.3583 54.54 85.0223 54.908C84.7023 55.276 84.5423 55.812 84.5423 56.516C84.5423 57.22 84.7023 57.756 85.0223 58.124C85.3583 58.476 85.7663 58.652 86.2463 58.652Z" fill="#242731"/>
</svg>
