<svg width="112" height="113" viewBox="0 0 112 113" fill="none" xmlns="http://www.w3.org/2000/svg">
<path d="M95.6591 87.6017C98.0928 89.5103 101.64 89.0975 103.296 86.4855C108.06 78.9714 110.98 70.4056 111.777 61.4906C112.742 50.7102 110.562 39.8814 105.501 30.3142C100.439 20.747 92.7144 12.8514 83.2599 7.58276C73.8055 2.31411 63.0268 -0.101856 52.228 0.627182C41.4292 1.35622 31.073 5.19902 22.4125 11.6906C13.752 18.1822 7.15823 27.0445 3.42902 37.2051C-0.300193 47.3658 -1.00505 58.3894 1.39972 68.9423C3.3884 77.6691 7.43321 85.7648 13.1639 92.5704C15.156 94.9361 18.7261 94.8684 20.8812 92.6501C23.0362 90.4317 22.9529 86.9055 21.0205 84.4907C16.8115 79.2307 13.8272 73.0689 12.3198 66.4538C10.396 58.0115 10.9598 49.1926 13.9432 41.0641C16.9266 32.9356 22.2016 25.8458 29.13 20.6525C36.0584 15.4592 44.3433 12.385 52.9824 11.8017C61.6214 11.2185 70.2444 13.1513 77.8079 17.3662C85.3715 21.5811 91.5516 27.8976 95.6004 35.5514C99.6493 43.2051 101.393 51.8682 100.622 60.4925C100.017 67.2502 97.8882 73.7571 94.4243 79.5351C92.8341 82.1878 93.2254 85.6932 95.6591 87.6017Z" fill="#F4F5F9"/>
<path d="M20.8528 92.6224C18.6959 94.8391 15.1257 94.9039 13.1354 92.5366C5.53733 83.4993 0.957527 72.2477 0.134156 60.3739C-0.689216 48.5002 2.29377 36.7242 8.57173 26.7246C10.2162 24.1053 13.7613 23.6767 16.2034 25.5744C18.6455 27.4722 19.0523 30.976 17.4738 33.6356C12.851 41.4248 10.6747 50.4759 11.3073 59.5992C11.94 68.7224 15.3447 77.3865 20.9983 84.4631C22.9288 86.8794 23.0096 90.4058 20.8528 92.6224Z" fill="#F6CC0D"/>
<path d="M32.224 60.5V58.268C33.248 57.42 34.24 56.58 35.2 55.748C36.176 54.916 37.04 54.092 37.792 53.276C38.56 52.46 39.168 51.668 39.616 50.9C40.08 50.116 40.312 49.356 40.312 48.62C40.312 47.932 40.12 47.324 39.736 46.796C39.368 46.268 38.752 46.004 37.888 46.004C37.008 46.004 36.344 46.292 35.896 46.868C35.448 47.444 35.224 48.14 35.224 48.956H32.248C32.28 47.724 32.552 46.7 33.064 45.884C33.576 45.052 34.256 44.436 35.104 44.036C35.952 43.62 36.904 43.412 37.96 43.412C39.672 43.412 41 43.884 41.944 44.828C42.904 45.756 43.384 46.964 43.384 48.452C43.384 49.38 43.168 50.284 42.736 51.164C42.32 52.044 41.768 52.892 41.08 53.708C40.392 54.524 39.648 55.292 38.848 56.012C38.048 56.716 37.272 57.372 36.52 57.98H43.792V60.5H32.224ZM52.3669 60.788C51.1349 60.788 50.0709 60.572 49.1749 60.14C48.2949 59.708 47.5989 59.116 47.0869 58.364C46.5909 57.596 46.3029 56.732 46.2229 55.772H49.2229C49.3669 56.46 49.7189 57.036 50.2789 57.5C50.8389 57.948 51.5349 58.172 52.3669 58.172C53.2629 58.172 53.9909 57.844 54.5509 57.188C55.1269 56.532 55.4149 55.716 55.4149 54.74C55.4149 53.732 55.1269 52.932 54.5509 52.34C53.9909 51.748 53.2789 51.452 52.4149 51.452C51.6949 51.452 51.0709 51.628 50.5429 51.98C50.0149 52.332 49.6389 52.772 49.4149 53.3H46.4629L47.9029 43.7H57.2149V46.388H50.2069L49.4389 50.276C49.7909 49.892 50.2709 49.58 50.8789 49.34C51.4869 49.084 52.1669 48.956 52.9189 48.956C54.1189 48.956 55.1189 49.228 55.9189 49.772C56.7189 50.3 57.3269 51.004 57.7429 51.884C58.1589 52.748 58.3669 53.692 58.3669 54.716C58.3669 55.884 58.1109 56.924 57.5989 57.836C57.1029 58.748 56.3989 59.468 55.4869 59.996C54.5909 60.524 53.5509 60.788 52.3669 60.788ZM64.6818 51.956C63.9138 51.956 63.2178 51.788 62.5938 51.452C61.9698 51.1 61.4738 50.604 61.1058 49.964C60.7378 49.324 60.5538 48.564 60.5538 47.684C60.5538 46.804 60.7378 46.044 61.1058 45.404C61.4738 44.764 61.9698 44.276 62.5938 43.94C63.2178 43.588 63.9218 43.412 64.7058 43.412C65.4738 43.412 66.1618 43.588 66.7698 43.94C67.3938 44.276 67.8898 44.764 68.2578 45.404C68.6258 46.044 68.8098 46.804 68.8098 47.684C68.8098 48.564 68.6258 49.324 68.2578 49.964C67.8898 50.604 67.3938 51.1 66.7698 51.452C66.1458 51.788 65.4498 51.956 64.6818 51.956ZM63.7698 60.5L73.2498 43.7H76.2498L66.7698 60.5H63.7698ZM64.6818 49.82C65.1458 49.82 65.5458 49.644 65.8818 49.292C66.2178 48.924 66.3858 48.388 66.3858 47.684C66.3858 46.98 66.2178 46.444 65.8818 46.076C65.5618 45.708 65.1618 45.524 64.6818 45.524C64.2018 45.524 63.7938 45.708 63.4578 46.076C63.1378 46.444 62.9778 46.98 62.9778 47.684C62.9778 48.388 63.1378 48.924 63.4578 49.292C63.7938 49.644 64.2018 49.82 64.6818 49.82ZM75.4338 60.788C74.6658 60.788 73.9698 60.62 73.3458 60.284C72.7218 59.932 72.2258 59.436 71.8578 58.796C71.4898 58.156 71.3058 57.396 71.3058 56.516C71.3058 55.636 71.4898 54.884 71.8578 54.26C72.2258 53.62 72.7218 53.132 73.3458 52.796C73.9698 52.444 74.6738 52.268 75.4578 52.268C76.2258 52.268 76.9138 52.444 77.5218 52.796C78.1458 53.132 78.6418 53.62 79.0098 54.26C79.3778 54.884 79.5618 55.636 79.5618 56.516C79.5618 57.396 79.3778 58.156 79.0098 58.796C78.6418 59.436 78.1458 59.932 77.5218 60.284C76.9138 60.62 76.2178 60.788 75.4338 60.788ZM75.4338 58.652C75.9138 58.652 76.3138 58.476 76.6338 58.124C76.9698 57.756 77.1378 57.22 77.1378 56.516C77.1378 55.812 76.9698 55.276 76.6338 54.908C76.3138 54.54 75.9138 54.356 75.4338 54.356C74.9538 54.356 74.5458 54.54 74.2098 54.908C73.8898 55.276 73.7298 55.812 73.7298 56.516C73.7298 57.22 73.8898 57.756 74.2098 58.124C74.5458 58.476 74.9538 58.652 75.4338 58.652Z" fill="#242731"/>
</svg>
