<svg width="228" height="186" viewBox="0 0 228 186" fill="none" xmlns="http://www.w3.org/2000/svg">
<path d="M41.3793 103.492C41.3067 103.373 34.8343 91.7207 30.2611 83.8757C30.1561 83.6079 29.9503 83.3907 29.6877 83.2727C29.425 83.1537 29.1264 83.1428 28.8557 83.242C20.3532 84.8267 13.0371 86.1575 2.02002 88.2896C5.43298 96.3945 2.61502 90.3631 11.2211 108.864C11.3485 109.184 11.4758 109.439 11.9232 109.311C15.1826 108.672 18.4421 108.171 21.6991 107.526C27.0696 106.447 40.1643 103.811 41.3793 103.492Z" fill="#FF9619"/>
<path d="M85.273 54.1023C85.0183 54.1023 84.6327 53.6548 84.5708 53.3347C84.1745 51.2927 77.0846 12.701 76.9037 12.0596C76.6324 11.1076 77.0299 10.5126 78.0533 10.3936C81.6233 9.97828 133.001 4.44359 135.942 4.13181C136.58 4.06517 136.974 4.1925 137.156 4.89817C137.698 6.99971 146.347 43.3649 147.059 46.4934C147.107 46.6803 147.112 46.8754 147.073 47.0643C147.034 47.2533 146.954 47.4311 146.837 47.5847C146.721 47.7381 146.571 47.8633 146.399 47.9509C146.227 48.0384 146.038 48.0861 145.845 48.0904C143.289 48.2868 86.1679 54.1654 85.273 54.1023Z" fill="#0F2837"/>
<path d="M42.464 114.226C42.1807 112.246 41.4678 110.744 43.2314 110.202C44.5844 109.784 44.5725 109.817 44.5725 107.518C44.4444 105.001 45.2395 102.525 46.8085 100.553C47.8376 99.0572 49.1518 97.7789 50.6757 96.7922C52.1998 95.8055 53.9036 95.1302 55.6895 94.803C58.6026 94.1891 59.3381 93.8034 67.1266 94.7385C69.8636 95.0667 77.4391 96.5999 80.9306 96.6554C85.2265 96.7248 89.0096 95.2135 87.7006 91.0961C85.9085 85.4277 80.645 83.0448 74.9854 79.4678C72.1448 77.6719 69.7993 76.0615 71.8545 73.0141C72.8276 71.6698 74.1243 70.5928 75.6244 69.8832C79.7965 67.696 79.618 67.9661 81.6934 67.646C81.6934 67.5186 81.6934 67.2628 81.8207 67.1997C82.6537 66.5607 82.386 65.7955 82.2039 65.0268C81.8988 63.3077 81.964 61.5434 82.3956 59.8515C82.5236 59.3853 82.7972 58.9723 83.1766 58.6726C83.5559 58.3729 84.021 58.2022 84.5042 58.1855C87.2566 57.9713 147.32 51.6738 149.871 51.3501C150.818 51.192 151.789 51.2538 152.708 51.5307C153.628 51.8077 154.472 52.2923 155.174 52.9471C160.911 57.9986 171.768 66.4357 177.409 71.0934C177.955 71.4446 178.367 71.9706 178.576 72.5858C178.785 73.2005 178.779 73.8689 178.559 74.4797C178.289 75.2691 178.05 77.9823 174.661 78.377C164.373 79.5769 122.216 83.7895 108.021 85.4694C100.554 86.353 92.7355 81.2231 87.8946 75.5656C86.3133 73.8371 84.9405 71.9285 83.8045 69.8796C83.6771 69.4964 82.8406 69.5535 82.655 69.3679C82.2076 68.6646 81.6328 68.9205 81.058 69.112C77.982 69.8536 75.1992 71.501 73.0696 73.8411C70.7062 76.7199 75.5816 78.017 82.0148 82.3387C85.5372 84.7048 89.3796 88.9442 89.2987 93.008C89.2457 93.9144 88.9511 94.7891 88.4456 95.5427C87.9399 96.2964 87.2418 96.9003 86.4237 97.292C79.6681 100.279 67.8276 95.3543 59.5881 95.8868C54.471 96.2171 50.2238 98.2024 47.5761 102.789C46.4745 104.615 45.9405 106.728 46.0423 108.858C46.0423 109.37 46.1695 109.753 46.8085 109.88C48.0235 110.009 48.227 111.028 48.4745 111.989C48.8125 113.326 48.7971 113.298 50.1406 113.14C69.0045 110.935 61.4455 111.493 67.5836 110.903C68.4725 110.888 69.3473 111.126 70.1059 111.589C70.8645 112.053 71.4756 112.722 71.8677 113.521C74.6903 119.686 84.9493 140.009 85.2218 143.359C85.3478 144.094 85.1855 144.849 84.7689 145.468C84.3523 146.087 83.7132 146.521 82.9845 146.681C80.5779 147.701 78.0729 148.472 75.509 148.982C75.3685 149.014 50.4798 154.231 46.629 154.604C45.477 154.715 41.4535 154.924 39.7923 154.029C35.8225 152.788 32.8463 145.725 31.1672 141.891C23.813 125.096 23.932 124.636 23.6273 121.255C23.538 120.472 23.744 119.685 24.205 119.046C24.6659 118.408 25.3486 117.964 26.1192 117.804C30.0105 116.82 33.9089 115.992 37.8122 115.12C40.3076 114.561 42.2319 114.46 42.464 114.226ZM27.0653 126.175C26.9485 126.195 26.838 126.243 26.7421 126.312C26.6462 126.382 26.5675 126.473 26.5121 126.578C26.4566 126.682 26.4258 126.798 26.4221 126.917C26.4184 127.035 26.4418 127.153 26.4905 127.261C28.4814 131.757 37.1612 149.88 37.5444 150.39C38.0204 150.866 82.2718 142.111 82.398 142.084C82.532 142.056 82.658 141.997 82.7665 141.913C82.875 141.829 82.9631 141.722 83.0245 141.6C83.0859 141.477 83.1188 141.342 83.121 141.205C83.1232 141.067 83.0944 140.931 83.037 140.807C80.9283 136.428 73.1968 119.913 72.5649 118.635C72.4877 118.524 72.3814 118.434 72.2575 118.378C72.1336 118.322 71.9968 118.301 71.8616 118.316C66.8755 119.146 33.7102 124.962 27.0653 126.175ZM85.5288 69.7558C86.8526 72.2435 88.5315 74.5254 90.5126 76.5295C96.6574 82.3605 103.619 84.4311 105.847 84.2645C107.89 84.1088 169.425 77.4518 173.894 76.9173C174.627 76.8816 175.325 76.596 175.872 76.1081C176.418 75.6192 176.781 74.9577 176.898 74.2338C177 73.8481 176.995 73.4415 176.882 73.0581C176.77 72.6749 176.554 72.33 176.26 72.0609C168.814 65.9026 161.353 59.623 153.96 53.404C153.593 53.0472 153.148 52.7807 152.66 52.6254C152.172 52.4701 151.655 52.4303 151.149 52.5092C146.688 53.1672 91.3468 59.0613 85.0184 59.7301C82.8371 59.9598 83.4047 60.5452 83.9319 65.8634C83.989 66.4393 84.315 66.6297 84.8838 66.6297C85.4976 66.6207 86.0997 66.7992 86.6094 67.1414C87.0857 67.6479 87.4358 68.2593 87.6316 68.9264C87.8874 69.4381 87.6316 69.7594 87.0568 69.7594C86.5493 69.8221 86.036 69.8209 85.5288 69.7558Z" fill="#0F2837"/>
<path d="M168.978 25.4772C168.404 23.5601 167.892 21.7073 167.252 19.9187C167.032 17.0945 167.226 14.2532 167.827 11.4852C168.779 11.0092 170.038 13.7331 171.726 15.5097C173.063 16.9187 173.259 18.7049 173.771 20.3661C174.026 21.1991 174.28 21.9631 174.536 22.7937C174.571 22.7977 174.606 22.794 174.639 22.7829C174.673 22.7718 174.703 22.7536 174.728 22.7295C174.601 21.8965 174.089 13.6569 174.089 10.5915C174.089 8.68747 175.528 6.7204 177.348 7.58791C179.094 8.42091 179.241 10.1666 179.52 12.1242C180.863 11.9969 181.031 12.1242 181.305 13.4665C181.58 14.8589 181.58 16.2914 181.305 17.6839C181.173 18.2098 181.002 18.4264 180.667 18.2586C180.538 16.5926 180.155 13.2107 180.09 13.2107C179.975 13.6518 179.89 14.1003 179.836 14.553C180.028 17.5557 180.283 20.5585 180.602 23.5613C180.602 23.7398 180.776 24.6573 181.305 24.3943C182.124 19.6075 183.213 14.8709 184.567 10.2071C184.888 8.95641 185.781 7.78545 187.059 8.22575C187.4 8.44887 187.668 8.76859 187.826 9.14403C187.986 9.51948 188.031 9.9338 187.953 10.3344C187.953 10.4618 187.89 10.526 187.89 10.6545C188.209 10.7744 188.482 10.9949 188.666 11.2828C188.851 11.5707 188.937 11.9106 188.911 12.2515C188.944 13.7224 188.944 15.1254 188.911 16.5962C188.899 16.7527 188.831 16.8995 188.719 17.009C188.606 17.1186 188.458 17.1834 188.301 17.1913C188.144 17.1991 187.99 17.1496 187.867 17.0519C187.744 16.9541 187.661 16.815 187.634 16.6605C187.605 16.1874 187.541 15.7173 187.442 15.2539C184.085 32.04 186.478 23.8945 190.509 15.4455C190.864 14.8217 191.293 14.2428 191.787 13.7212C192.278 12.9896 192.835 12.3053 193.453 11.6768C193.546 11.5172 193.676 11.382 193.831 11.282C193.987 11.1819 194.164 11.1198 194.348 11.1008C194.923 11.1008 194.995 11.484 195.05 12.0599C195.203 13.6545 195.434 15.1908 195.626 16.7878C195.732 17.3209 195.55 17.5506 192.047 25.2856C191.788 25.8592 192.047 26.171 192.495 26.4363C193.013 26.7457 193.581 27.0754 194.092 27.33C194.488 27.5343 194.805 27.866 194.99 28.2717C195.176 28.6774 195.219 29.1337 195.114 29.5672C194.611 32.7731 190.401 56.0102 189.939 58.8936C188.812 65.9229 178.54 64.5961 171.601 63.1109C168.115 62.366 168.36 60.2549 167.512 56.5945C167.053 54.6155 161.812 32.3006 160.931 29.1198C160.111 26.1829 165.971 25.3153 168.978 25.4772ZM193.135 30.2693C182.912 32.4423 172.816 32.6338 162.848 29.1198C165.616 42.9559 166.918 46.7234 170.261 59.4648C170.675 61.0463 171.677 60.844 172.241 61.1308C179.939 61.9638 182.934 62.9158 186.362 61.3224C186.842 61.1493 187.267 60.8506 187.593 60.4573C187.92 60.0641 188.134 59.5906 188.214 59.0864C192.907 33.9762 191.469 39.9024 193.128 30.2693H193.135ZM168.662 19.5986C169.167 22.7316 170.022 25.798 171.212 28.7402C171.282 28.8943 171.392 29.0267 171.531 29.1233C172.682 29.3149 173.831 29.4423 175.046 29.5708C174.853 28.7985 171.888 19.3368 171.851 19.2178C171.275 17.7458 168.401 19.2797 168.655 19.5986H168.662ZM192.623 17.7458C192.305 17.81 191.983 18.073 191.665 18.0016C191.408 17.9445 191.218 17.5542 190.962 17.2352C189.237 21.2598 187.129 25.0892 185.595 29.3114C186.744 29.1828 187.703 29.0555 188.661 28.9282C189.127 28.9282 189.184 28.6473 193.198 19.2797C193.409 18.8429 192.972 18.3396 192.616 17.7458H192.623ZM183.359 16.8521C182.464 21.2551 181.693 25.3498 180.803 29.6303C181.698 29.5672 182.273 29.503 182.912 29.503C183.971 29.503 183.369 29.5303 186.106 17.5542C185.141 17.2995 184.245 17.1067 183.352 16.8521H183.359ZM179.525 29.6303C179.122 23.9873 178.844 21.3729 178.692 18.768C178.611 17.3638 178.436 17.102 176.967 17.2352C176.578 17.3203 176.194 17.4268 175.817 17.5542C176.2 21.5799 176.583 25.6057 176.903 29.6303H179.525ZM178.376 15.7073C178.12 13.7271 177.876 11.6161 177.48 9.57402C177.233 8.29477 175.946 8.93499 175.755 9.25391C175.501 9.60714 175.366 10.0325 175.372 10.4677C175.474 14.7589 175.755 15.1635 175.755 16.2821C176.642 16.0845 177.409 15.8882 178.368 15.7013L178.376 15.7073ZM170.516 16.7938C169.302 14.9409 169.302 14.9409 168.471 15.1968C168.088 18.0718 167.832 17.6244 168.662 17.6244C169.338 17.5036 169.972 17.216 170.508 16.7878L170.516 16.7938ZM192.24 16.1547C193.135 15.6442 193.135 15.6442 194.025 16.9211H194.217C194.154 16.0905 194.09 15.2598 194.025 14.4292C193.691 14.3031 193.35 14.1967 193.003 14.1103C191.785 15.4455 191.785 15.4455 192.233 16.1488L192.24 16.1547Z" fill="#0F2837"/>
<path d="M8.53612 175.884C7.92159 175.972 7.29783 175.972 6.68329 175.884C6.56776 175.858 6.46056 175.803 6.37141 175.726C6.28236 175.647 6.21404 175.548 6.17278 175.437C6.10852 175.309 6.36437 175.053 6.4917 174.862C6.71463 174.636 6.98486 174.46 7.28315 174.35C7.58134 174.239 7.90026 174.196 8.2172 174.223C19.4222 172.122 201.406 138.88 221.688 134.928C223.566 134.562 224.708 136.382 223.222 136.713C221.902 137.014 8.65512 175.863 8.53612 175.884Z" fill="#0F2837"/>
<path d="M225.841 142.021C226.063 141.935 226.309 141.933 226.532 142.015C226.755 142.098 226.942 142.259 227.055 142.469C226.927 143.171 226.353 143.302 225.778 143.491C153.307 160.851 16.8139 185.916 10.2617 185.916C10.2617 183.183 53.4623 179.751 225.841 142.021Z" fill="#0F2837"/>
<path d="M40.1643 74.804C38.3793 76.3381 33.3337 75.5606 31.5392 74.4212C30.3085 73.6388 29.3023 72.55 28.619 71.2619C27.9359 69.9737 27.5991 68.53 27.6419 67.0725C27.4575 60.8964 32.7006 58.8472 36.0112 61.6413C36.2671 61.8329 36.5229 62.0888 36.7145 61.6413C37.2229 60.6638 37.9689 59.8297 38.8838 59.2158C39.7987 58.6017 40.8532 58.2274 41.9505 58.1272C48.3884 57.0158 51.6538 56.3482 61.3106 58.1915C64.1904 58.7413 65.7136 61.1939 65.4637 64.3248C65.0577 68.8423 63.2711 73.1255 60.3467 76.593C59.3053 77.899 57.7959 78.7469 56.1389 78.9581C53.2007 79.4103 50.2197 79.5174 47.2567 79.2774C43.6272 78.975 41.3769 75.8433 40.1643 74.804ZM37.6094 63.4311C37.4072 65.7289 37.8032 68.0398 38.7589 70.1391C40.0232 72.6952 41.8339 74.9418 44.0628 76.7209C44.8706 77.4577 45.9112 77.8871 47.0032 77.9347C50.485 78.2044 53.9872 78.011 57.4181 77.3605C57.7656 77.2584 58.0763 77.0581 58.313 76.7844C61.7402 73.2491 64.5141 67.8519 64.3189 62.792C64.2083 59.9265 61.2142 59.0566 58.3773 58.6389C52.0512 57.706 38.2258 57.0789 37.6094 63.4311ZM48.1516 58.8936C58.5748 57.8226 65.2555 61.0642 62.528 62.2803C57.668 64.4473 49.557 65.6968 40.2928 63.3025C39.3325 63.055 37.732 61.7556 39.8454 60.5548C41.3115 59.7195 46.3618 59.0769 48.1516 58.8936ZM36.1397 63.9416C36.2183 63.5479 36.1501 63.139 35.9481 62.792C35.5394 62.2904 35.0045 61.9067 34.3984 61.6802C33.7923 61.4537 33.1369 61.3927 32.4993 61.5033C31.8618 61.6138 31.2653 61.8922 30.7709 62.3096C30.2765 62.7271 29.9022 63.2685 29.6864 63.8785C29.2776 64.8293 29.0736 65.8555 29.0874 66.8903C29.1012 67.9252 29.3325 68.9455 29.7664 69.8851C30.2002 70.8247 30.827 71.6625 31.6057 72.3441C32.3846 73.0256 33.298 73.5357 34.2869 73.8411C35.9769 74.5134 37.8428 74.6027 39.5895 74.0959C39.2706 73.6487 38.9505 73.2629 38.6947 72.882C34.9688 74.208 27.7681 67.2724 32.4341 64.0011C32.9577 63.5816 33.6058 63.3482 34.2767 63.3375C34.9476 63.3266 35.6028 63.5392 36.1397 63.9416ZM38.3757 72.4394C37.0645 70.3476 36.3364 67.9433 36.2671 65.4755C36.1643 65.2198 36.0055 64.9905 35.8023 64.8043C35.5991 64.6182 35.3566 64.48 35.0929 64.4001C34.8292 64.3202 34.5509 64.3005 34.2786 64.3424C34.0062 64.3844 33.7467 64.4869 33.5194 64.6425C29.9862 66.6036 34.3714 72.4394 38.3757 72.4394ZM47.4483 60.9392C45.6633 60.0443 42.4646 60.3633 41.4424 61.9614C43.4868 61.5842 45.3372 61.2581 47.4483 60.9392Z" fill="#0F2837"/>
<path d="M81.2489 57.1692C81.5047 59.8526 80.1077 57.5511 80.0351 57.1049C79.6364 54.669 72.093 15.3204 71.792 13.2094C71.502 11.8618 71.6349 10.4576 72.1725 9.18825C72.7099 7.91902 73.6259 6.84643 74.7955 6.11696C75.4729 5.76958 76.2096 5.55281 76.9673 5.47794C78.6249 5.20066 132.174 0.200284 134.473 0.111034C141.643 -0.167426 140.978 0.784574 151.404 49.4377C151.404 50.78 150.396 50.329 150.254 49.7566C150.08 49.0498 149.79 48.356 149.615 47.6492C140.35 10.188 140.471 5.39701 139.648 3.88095C139.325 3.13036 138.777 2.49917 138.077 2.07533C137.379 1.65149 136.566 1.45613 135.751 1.51642C133.834 1.64732 76.7709 6.87142 75.8177 7.45928C73.5877 8.82421 73.5567 10.7746 73.2616 12.5703C73.3259 12.6346 80.6099 53.4635 81.2489 57.1692Z" fill="#0F2837"/>
<path d="M35.6277 105.919C34.164 106.207 28.7257 107.379 27.45 107.645C25.4615 108.06 20.6361 108.769 12.3703 110.584C12.0476 110.681 11.7085 110.712 11.3736 110.673C11.0387 110.636 10.7151 110.529 10.4224 110.363C10.1296 110.196 9.87382 109.971 9.67043 109.702C9.46713 109.434 9.32047 109.126 9.23945 108.799C0.538188 88.1317 0.830929 88.7465 0.997529 87.5813C0.997529 87.1866 0.658378 87.3661 24.1906 82.854C25.8566 82.5357 27.5167 82.2303 29.1743 81.8316C29.9431 81.6472 30.3251 82.0875 30.644 82.6646C38.5694 96.9307 35.3254 91.7086 41.2504 101.322C41.7621 102.155 42.156 102.976 42.6558 103.75C42.9831 104.256 42.7189 104.639 42.2096 104.773C41.7669 104.886 37.4829 105.556 35.6277 105.919ZM41.379 103.492C41.3064 103.373 34.834 91.7205 30.2608 83.8764C30.1558 83.6077 29.95 83.3915 29.6873 83.2725C29.4247 83.1545 29.1261 83.1426 28.8554 83.2418C20.3529 84.8265 13.0367 86.1573 2.01974 88.2894C5.43264 96.3952 2.61474 90.3629 11.2208 108.863C11.3481 109.184 11.4755 109.439 11.9229 109.311C15.1823 108.672 18.4417 108.171 21.6987 107.526C27.0692 106.447 40.164 103.811 41.379 103.492Z" fill="#0F2837"/>
<path d="M4.76741 51.3504C3.39296 51.6253 2.73727 49.7808 4.12838 49.4333C5.91335 49.2191 72.213 43.4119 74.3479 43.2358C75.2416 43.162 75.5617 43.2989 75.6259 43.9379C75.6902 44.5769 75.4974 44.8971 74.7929 44.8971C72.3998 44.9018 5.14461 51.3504 4.76741 51.3504Z" fill="#0F2837"/>
<path d="M203.862 84.8982C200.224 83.9075 202.263 84.8902 192.872 81.3847C190.396 80.3424 188.074 78.967 185.97 77.296C185.526 76.9896 185.027 76.7724 184.501 76.6564C184.112 76.6029 183.746 76.4442 183.443 76.1973C183.138 75.9504 182.908 75.6241 182.776 75.2552C182.644 74.8863 182.617 74.4886 182.695 74.1039C182.773 73.7201 182.956 73.3661 183.222 73.0783C184.704 71.3167 186.621 69.9732 188.782 69.181C192.5 67.6138 196.193 68.16 199.835 69.4369C205.272 71.3409 211.998 73.3214 213.639 78.6378C213.894 79.6146 213.834 80.6469 213.466 81.588C213.099 82.5281 212.444 83.3284 211.594 83.8738C207.065 86.3698 205.851 85.4416 203.862 84.8982ZM187.632 77.5519C191.64 80.0549 196.018 81.9093 200.603 83.0457C199.858 82.301 201.443 83.2431 188.08 77.423C187.559 77.0769 187.32 77.3942 187.632 77.5519ZM191.721 69.2453C189.155 69.8403 185.533 71.4398 184.054 73.5902C183.4 74.5422 183.669 75.1967 184.822 75.5071C190.776 77.0491 196.477 79.4371 201.753 82.5985C204.685 84.0771 207.003 85.3285 210.826 82.1522C212.611 80.6717 212.681 79.4033 211.465 77.423C210.487 75.757 209.014 74.4391 207.249 73.6546C204.248 72.3714 201.18 71.2255 198.048 70.139C196.013 69.4496 193.867 69.1464 191.721 69.2453Z" fill="#0F2837"/>
<path d="M181.435 100.681C181.562 98.2524 183.407 97.3064 185.524 98.5083C185.643 98.5787 201.969 107.577 214.724 114.93C215.855 116.17 216.86 117.519 217.726 118.955C218.021 119.401 217.876 119.907 217.152 119.907C211.488 119.279 216.512 121.274 183.096 102.533C182.521 102.022 181.691 101.512 181.435 100.681ZM213.893 115.568L189.803 101.895C189.609 101.731 189.383 101.612 189.139 101.545C188.895 101.478 188.64 101.465 188.39 101.508C188.14 101.551 187.903 101.648 187.694 101.792C187.486 101.935 187.313 102.124 187.185 102.342C186.661 102.971 186.677 103.294 187.376 103.684C198.399 109.789 212.137 117.804 212.424 117.804C212.871 117.102 213.318 116.334 213.893 115.568ZM215.938 117.74L214.98 116.207C213.764 116.717 213.255 117.357 213.314 118.378C214.213 118.251 215.234 118.89 215.938 117.74ZM183.094 101.256C183.604 100.489 184.052 99.7866 184.564 99.019C184.409 98.9337 184.239 98.8812 184.065 98.8643C183.889 98.8465 183.713 98.8663 183.546 98.9198C183.379 98.9734 183.224 99.0616 183.092 99.1777C182.96 99.2937 182.853 99.4355 182.779 99.5942C182.33 100.361 182.521 101 183.096 101.256H183.094ZM185.522 102.788C186.16 101.955 186.736 101.319 187.307 100.617C186.856 100.587 186.408 100.718 186.045 100.987C185.682 101.256 185.427 101.646 185.325 102.086C185.332 102.282 185.519 102.597 185.519 102.788H185.522ZM184.243 102.15C184.82 101.198 185.266 100.484 185.65 99.7221C184.691 99.9135 184.052 100.425 183.984 101.256C184.019 101.567 184.108 101.869 184.245 102.15H184.243Z" fill="#0F2837"/>
<path d="M63.1025 75.7617C66.9842 76.437 65.8787 84.5092 52.3044 85.3462C47.0363 85.6705 35.4826 83.6038 37.4806 79.4686C37.648 78.9787 37.9549 78.5493 38.3637 78.232C38.7724 77.9146 39.2651 77.7242 39.7808 77.6836C39.6837 77.8769 39.5268 78.0336 39.3334 78.1308C39.0085 78.3024 38.7387 78.5622 38.5548 78.8795C38.3709 79.1979 38.2805 79.5608 38.2938 79.9287C38.3073 80.2956 38.4241 80.6516 38.6306 80.9551C38.8373 81.2585 39.1255 81.4975 39.4619 81.6453C45.2144 85.1409 57.037 85.5197 62.9751 80.6933C63.3002 80.4523 63.5726 80.1489 63.7757 79.7988C63.9788 79.4497 64.1083 79.063 64.1561 78.6614C64.2039 78.2597 64.1691 77.8531 64.0538 77.4654C63.9385 77.0787 63.7452 76.7187 63.4856 76.4093C63.2941 76.2734 63.2298 76.0176 63.1025 75.7617Z" fill="#0F2837"/>
<path d="M197.025 33.2725C196.097 33.2725 195.919 32.4871 196.578 31.9945C197.662 30.8259 211.537 29.9501 211.657 29.9501C211.98 29.9247 212.298 30.0282 212.544 30.2378C212.789 30.4476 212.941 30.7462 212.967 31.0681C212.992 31.3901 212.889 31.7089 212.679 31.9544C212.469 32.2001 212.171 32.3523 211.849 32.3777C206.929 32.9592 201.98 33.258 197.025 33.2725Z" fill="#0F2837"/>
<path d="M154.536 35.4443C159.534 34.8743 160.36 34.7886 161.053 35.1884C161.185 35.2488 161.295 35.3471 161.369 35.4706C161.444 35.594 161.48 35.737 161.473 35.8812C161.466 36.0255 161.417 36.1644 161.33 36.2801C161.244 36.3958 161.125 36.4831 160.989 36.5308C160.098 36.8548 159.178 37.0904 158.241 37.2341C156.007 37.5101 153.705 37.6815 151.405 37.8088C150.447 37.9362 148.716 36.1083 154.536 35.4443Z" fill="#0F2837"/>
<path d="M173.831 93.908C173.385 93.3329 172.879 92.6298 171.915 93.0125C171.723 93.077 169.787 93.2168 169.297 92.3739C168.377 90.8031 164.859 89.8749 163.482 89.7559C150.421 88.3567 144.522 91.0193 138.054 94.6756C136.807 95.2101 137.712 94.9384 133.707 93.5262C125.987 90.6306 112.935 91.2791 100.482 99.2124C98.874 100.204 97.5005 101.534 96.4583 103.11C95.6511 104.318 95.0412 104.108 93.263 104.895C93.0717 104.938 92.8942 105.029 92.7463 105.157C92.5983 105.286 92.4845 105.45 92.4149 105.632C92.3452 105.816 92.322 106.014 92.3473 106.209C92.3726 106.403 92.4456 106.588 92.5597 106.748C93.5819 108.474 112.112 139.527 113.773 142.402C114.284 143.296 114.667 143.488 115.625 143.296C119.141 142.528 148.749 136.78 155.305 135.374C156.345 135.092 157.424 134.984 158.499 135.053C160.722 135.32 162.963 134.724 164.76 133.387C165.265 133.017 165.863 132.796 166.486 132.749C169.489 132.365 192.491 128.978 194.854 128.659C201.868 127.927 204.286 133.417 173.831 93.908ZM117.221 140.295C116.745 139.819 96.6626 106.678 96.5832 106.559C97.1415 106 95.3932 103.643 116.901 139.146C117.588 140.289 117.594 139.922 117.221 140.295ZM127.316 137.1C135.205 133.609 143.68 131.637 152.299 131.286L127.316 137.1ZM129.872 134.799C135.431 131.989 141.245 130.2 147.188 130.455C141.274 131.261 135.466 132.718 129.872 134.799ZM118.818 139.657C111.534 127.772 104.25 115.909 96.966 104.067C107.869 94.7846 122.425 91.2513 134.729 95.6335C136.248 96.1591 137.535 97.1984 138.37 98.5728C148.897 114.706 158.236 128.572 159.518 130.711C144.249 125.983 130.958 130.137 118.818 139.657ZM161.052 130.455C153.577 119.209 146.037 107.837 138.435 96.4635C145.596 90.5354 160.648 89.868 168.145 92.6298C168.712 92.7726 192.113 123.313 192.616 124.066C187.221 122.91 181.624 123.108 176.322 124.641C170.989 125.864 165.85 127.821 161.052 130.455ZM187.76 124.961C183.357 125.6 178.687 126.175 174.087 126.813C180.221 125.152 185.971 124.449 187.76 124.961ZM167.953 129.688C167.902 129.614 167.879 129.523 167.889 129.432C169.359 129.05 170.893 128.599 172.489 128.347C175.709 127.858 188.415 125.942 191.721 125.791C192.154 125.797 192.584 125.862 192.999 125.983C184.567 127.261 176.26 128.475 167.953 129.688Z" fill="#0F2837"/>
<path d="M183.096 101.257C181.787 100.674 182.886 98.2115 184.501 99.0197C184.054 99.7833 183.543 100.489 183.096 101.257Z" fill="#FF9619"/>
<path d="M70.6419 142.212C70.5133 142.914 70.129 143.248 69.4911 143.17C66.4792 142.805 70.417 144.539 57.5435 136.909C54.1865 134.919 40.4194 127.499 40.4194 124.961C40.7324 124.648 44.3298 125.199 44.8926 125.535C73.3693 142.736 68.5974 139.658 70.6419 142.212ZM57.2877 135.695C57.6102 136.017 63.5507 139.554 67.8299 142.083C68.2738 142.347 68.4689 142.148 68.7248 141.829C68.9806 141.445 68.7248 141.255 68.4059 141.062C67.204 140.332 60.0342 135.945 57.7351 134.608C57.6084 134.979 57.4589 135.342 57.2877 135.695Z" fill="#0F2837"/>
<path d="M151.212 54.9327C152.381 55.1124 151.569 54.6519 169.167 69.8196C169.831 70.2623 169.345 70.7145 168.911 70.7145C166.484 70.9691 108.659 77.5554 106.04 77.9342C105.63 78.0016 105.211 77.953 104.827 77.7954C104.443 77.6367 104.111 77.3749 103.867 77.0397C91.3718 61.8871 90.972 61.9263 91.1517 61.3849C91.655 60.3781 151.072 54.9101 151.212 54.9327ZM102.909 65.9223C102.141 66.0497 101.566 66.177 100.928 66.2413C100.352 66.3698 100.863 66.5614 101.248 66.5614C103.522 65.9295 104.496 67.4265 107.125 70.7145C106.231 70.8418 105.528 70.9061 104.825 71.0334C104.186 71.2892 104.761 71.225 104.825 71.2892C105.441 71.3572 106.061 71.3572 106.677 71.2892C106.997 71.2146 107.33 71.2353 107.636 71.3489C107.944 71.4626 108.21 71.6641 108.403 71.9283C109.012 72.5364 109.651 73.1119 110.321 73.6522C110.512 73.7811 110.703 73.908 110.512 73.4608C109.872 72.7589 109.298 72.0556 108.595 71.3535C108.581 71.3379 108.572 71.3192 108.568 71.2992C108.565 71.2791 108.566 71.2585 108.572 71.2391C108.579 71.2197 108.59 71.2024 108.606 71.1887C108.621 71.1749 108.639 71.1653 108.659 71.1607C109.681 71.0334 114.025 70.4586 116.262 70.267C116.585 70.3105 116.88 70.4694 117.095 70.7145C118.741 72.3602 120.965 74.9394 120.29 73.5897C119.395 72.503 118.505 71.3535 117.542 70.267C117.798 70.1385 119.591 69.9731 124.507 69.434C126.745 69.196 127.461 68.9092 128.149 69.6899C128.863 70.5062 129.618 71.2869 130.322 72.1175C130.641 72.628 130.897 72.3733 130.513 71.9259C129.874 70.9667 129.171 70.0731 128.469 69.0509C131.215 68.7307 133.9 68.4118 136.646 68.0917C137.598 68.0917 138.708 70.1897 139.969 71.031L140.161 70.8394C139.459 69.9445 138.819 69.0544 138.116 68.156C137.937 67.799 137.89 68.0227 145.592 67.0052C146.488 66.8862 147.062 66.7506 147.7 67.6443C148.851 69.6899 149.366 70.0088 148.914 68.8593C148.723 68.5391 148.276 67.6443 148.021 67.1338C148.002 67.1007 147.993 67.0635 147.993 67.0257C147.994 66.9879 148.005 66.9509 148.024 66.9185C148.044 66.8859 148.071 66.8593 148.104 66.8408C148.137 66.8225 148.174 66.8131 148.212 66.8136C149.235 66.6863 151.792 66.1865 154.09 65.92C156.199 65.6748 156.844 65.2762 157.603 66.1115C158.183 66.747 158.819 67.3253 159.458 67.9644C159.904 68.4749 160.095 68.3476 159.713 67.7728L157.928 65.5999C157.897 65.5762 157.874 65.543 157.864 65.5056C157.854 65.4682 157.856 65.4284 157.871 65.3923C157.885 65.3563 157.911 65.3259 157.944 65.3058C157.977 65.2857 158.016 65.277 158.054 65.2809L160.227 64.7062C160.738 64.5776 160.483 64.4503 160.164 64.4503C157.175 64.7216 157.413 65.2619 155.818 63.3638C155.119 62.5308 152.623 60.4245 152.24 60.0414C152.447 59.9218 152.66 59.8149 152.879 59.7213C153.327 59.5939 153.327 59.4023 152.688 59.5297C152.327 59.6064 151.952 59.5847 151.602 59.4666C151.474 59.4023 150.516 58.2528 150.196 57.8684C149.813 57.5495 149.813 57.7411 150.004 57.9969L150.837 59.3381C150.856 59.3711 150.865 59.4085 150.865 59.4463C150.864 59.484 150.853 59.521 150.834 59.5535C150.814 59.5859 150.787 59.6127 150.754 59.631C150.721 59.6495 150.683 59.6588 150.646 59.6582C147.962 59.9771 145.342 60.2972 142.722 60.5519C141.869 60.5519 141.532 59.9747 140.614 59.2107C140.358 58.7633 140.167 58.9549 140.487 59.3381C140.805 59.7855 141.061 60.233 141.382 60.6804C141.509 60.9362 141.445 60.9993 141.317 60.9993C140.103 61.2552 137.675 61.3135 136.2 61.511C132.493 62.0084 132.294 62.0941 130.833 60.3603C130.502 59.9884 130.138 59.6464 129.747 59.3381C129.555 59.0834 129.428 59.275 129.555 59.5297C130.131 60.2329 130.833 61.1278 131.473 61.8942C131.486 61.9098 131.494 61.9284 131.498 61.9483C131.502 61.9682 131.5 61.9887 131.494 62.0078C131.487 62.0271 131.476 62.0442 131.461 62.0579C131.446 62.0715 131.428 62.0811 131.408 62.0858C130.45 62.15 126.49 62.344 124.763 62.6606C123.359 62.9188 123.097 62.8521 122.016 61.5753C121.733 61.1635 121.411 60.7784 121.057 60.4245C120.61 59.8498 120.739 60.2972 120.866 60.6161C121.313 61.2552 121.76 61.9585 122.209 62.6606C122.222 62.6899 122.229 62.7216 122.23 62.754C122.231 62.7862 122.225 62.8182 122.213 62.8482C122.201 62.8781 122.183 62.9053 122.16 62.9281C122.137 62.9509 122.11 62.9688 122.08 62.9807C119.14 63.4281 116.279 63.8851 113.393 64.3218C112.338 64.4824 112.704 64.0838 111.029 62.4059L110.836 62.5975C111.221 63.2365 111.669 63.8113 112.179 64.5134C109.687 64.9608 107.258 65.2762 104.831 65.7914C104.474 65.896 104.09 65.8696 103.751 65.7169C103.411 65.5642 103.137 65.2952 102.978 64.9584C101.381 62.9783 101.125 63.1056 101.381 63.4257C101.806 64.3064 102.318 65.1428 102.909 65.9223Z" fill="#FF9619"/>
<path d="M103.676 81.8959C103.557 81.7769 102.538 80.9974 103.802 80.6821C106.42 80.3618 171.851 72.8863 174.661 72.5674C175.212 72.5674 175.597 73.2446 174.725 73.4608C167.991 74.3305 105.028 81.6242 103.676 81.8959Z" fill="#0F2837"/>
<path d="M84.8901 61.1303C102.373 80.7655 102.785 80.2121 102.015 80.8736C101.566 81.2563 101.251 80.8061 100.992 80.4908C97.6512 76.421 83.9321 61.6432 83.9321 61.3849C83.9321 61.1933 83.9274 60.0474 84.8901 61.1303Z" fill="#0F2837"/>
<path d="M112.493 105.346C111.752 105.725 111.038 106.151 110.827 105.602C110.572 104.581 115.962 102.236 116.513 102.023C121.531 100.055 126.915 99.2053 132.295 99.5306C133.222 99.6327 134.141 99.8033 135.043 100.042C137.8 101.417 124.634 99.124 112.493 105.346Z" fill="#0F2837"/>
<path d="M135.56 104.323C137.092 104.962 135.622 105.156 135.366 105.156C132.261 105.174 129.17 105.582 126.167 106.37C125.975 106.435 124.441 106.243 125.911 105.537C131.612 103.71 132.871 103.704 135.56 104.323Z" fill="#0F2837"/>
<path d="M161.691 117.677C160.925 116.463 160.158 115.313 159.391 114.163C159.279 114.09 159.153 114.04 159.021 114.019C158.89 113.997 158.755 114.002 158.625 114.034C157.981 114.212 157.282 114.417 156.579 114.546C156.964 113.652 157.857 113.459 158.625 112.948C158.049 111.99 157.538 111.032 156.959 110.01C154.655 110.843 154.793 110.8 154.146 110.584C154.535 110.002 153.853 110.227 156.511 109.115C155.744 107.773 155.042 106.497 154.274 105.153C153.764 105.345 153.252 105.537 152.677 105.728C152.677 104.835 153.443 104.776 153.828 104.388C153.252 103.174 152.677 101.958 152.103 100.681C152.167 100.617 152.133 99.6354 153.125 101C154.791 103.293 154.943 103.939 155.425 103.939C157.534 103.492 159.578 102.98 161.687 102.47C159.513 98.5089 159.195 97.1662 162.453 101.831C162.527 102.047 162.681 102.228 162.882 102.334C163.084 102.441 163.319 102.467 163.539 102.406C165.071 102.257 166.606 102.214 168.268 102.15C168.054 101.765 167.883 101.358 167.757 100.937C166.091 95.761 168.65 100.553 168.65 100.617C169.827 104.145 172.674 101.17 173.886 103.428C172.864 103.365 171.778 103.301 170.5 103.236C171.203 104.323 171.778 105.281 172.417 106.24C172.567 106.538 175.699 106.263 176.634 107.192C175.548 107.767 174.462 107.192 173.248 107.575C173.76 108.408 174.269 109.241 174.845 110.067C174.909 110.196 175.229 110.196 175.483 110.196C176.443 110.258 177.337 110.258 178.295 110.323C178.56 110.379 178.817 110.464 179.062 110.578C179.062 111.043 179.44 110.677 175.611 111.281C176.185 112.24 176.697 113.197 177.336 114.093C177.669 114.426 178.764 114.195 181.361 114.349C181.612 114.349 182.789 114.767 182.448 115.115C181.042 115.242 179.635 115.371 178.164 115.498C178.274 115.978 178.422 116.448 178.61 116.903C180.276 121.504 180.207 121.696 177.777 117.479C177.301 116.843 176.884 115.754 176.244 115.754C174.578 116.01 172.984 116.266 171.261 116.521C171.708 117.606 172.538 119.78 172.793 120.61C173.369 122.143 172.41 120.738 172.346 120.674C170.726 118.379 170.253 116.968 169.535 116.968C167.617 117.351 165.765 117.801 163.848 118.182C164.424 119.204 164.934 120.163 165.445 121.121C165.894 121.824 165.382 121.696 165.126 121.312C164.742 120.865 164.293 120.479 163.912 120.034C163.467 119.521 163.079 118.693 162.571 118.564C161.896 118.341 161.163 118.978 158.993 119.46C159.391 118.508 160.605 118.316 161.691 117.677ZM157.666 108.668C159.71 108.157 161.691 107.581 163.671 107.071C163.161 105.92 162.586 104.835 162.005 103.556C159.897 103.939 157.721 104.389 155.425 104.835C156.261 106.175 156.959 107.454 157.666 108.668ZM160.349 113.459C161.182 114.738 161.947 115.951 162.713 117.103C162.765 117.168 162.836 117.216 162.917 117.239C162.997 117.261 163.082 117.258 163.161 117.23C165.014 116.718 166.931 116.207 168.847 115.633C168.209 114.546 167.57 113.524 166.931 112.501C166.884 112.428 166.817 112.37 166.738 112.337C166.657 112.302 166.569 112.293 166.484 112.31C164.502 112.694 162.522 113.076 160.349 113.459ZM166.1 111.224C165.588 110.329 165.014 109.439 164.502 108.541C164.273 108.082 163.354 108.591 158.177 109.562C158.752 110.584 159.2 111.347 159.71 112.18C159.839 112.309 160.094 112.5 160.286 112.436C162.202 112.054 164.119 111.671 166.1 111.224ZM168.08 111.99C169.715 114.664 170.05 115.441 170.445 115.441C172.111 115.185 173.767 114.865 175.492 114.546C174.917 113.587 174.406 112.694 173.826 111.798C173.646 111.429 173.171 111.464 168.08 111.99ZM163.161 103.428C165.055 106.899 164.485 106.926 166.74 106.687C167.953 106.557 169.167 106.431 170.445 106.303C169.934 105.345 169.437 104.441 168.911 103.62C168.849 103.518 168.766 103.431 168.666 103.365C168.566 103.299 168.454 103.255 168.336 103.236C166.674 103.269 165.014 103.365 163.161 103.428ZM165.653 108.029C166.228 109.05 166.74 109.881 167.319 110.712C167.379 110.79 167.457 110.853 167.545 110.898C167.633 110.942 167.73 110.966 167.829 110.968C169.555 110.776 171.216 110.52 173.005 110.329C170.698 106.877 172.513 107.538 165.653 108.029Z" fill="#0F2837"/>
<path d="M150.446 97.4217C150.254 96.8475 150.702 96.5272 151.15 96.3992C157.643 94.0073 164.291 94.4625 165.525 95.6962C166.08 96.2525 165.468 96.5877 165.079 96.4637C160.436 94.9861 155.061 96.2683 150.446 97.4217Z" fill="#0F2837"/>
<path d="M20.6121 85.666C22.6476 85.6849 24.6321 86.3056 26.3158 87.449C27.9996 88.5934 29.3075 90.2098 30.075 92.095C30.8425 93.9802 31.0353 96.0498 30.6291 98.045C30.2229 100.039 29.2359 101.87 27.7922 103.305C26.3486 104.74 24.5129 105.716 22.5158 106.11C20.5188 106.504 18.4498 106.299 16.5691 105.52C14.6884 104.742 13.08 103.424 11.9462 101.734C10.8124 100.043 10.2039 98.0549 10.1973 96.019C10.2109 93.2672 11.3144 90.6323 13.2664 88.6916C15.2185 86.7509 17.8598 85.663 20.6121 85.666ZM19.0794 94.4205C19.0794 94.356 16.9707 90.2029 15.8843 87.9667C14.8621 88.9246 13.9672 89.7517 12.945 90.6501C15.0537 91.9909 19.0152 94.4205 19.0794 94.4205ZM12.5618 100.616C13.584 101.703 14.4789 102.597 15.4368 103.619C16.7792 101.447 19.3353 97.2943 19.3353 97.2299C19.1568 97.4143 14.8157 99.4908 12.5618 100.616ZM12.1144 99.7834C14.4789 98.5696 18.7593 96.3324 18.7593 96.2689C16.3317 96.141 13.9041 96.0775 11.2837 95.9496C11.5408 97.2953 11.7954 98.4446 12.1144 99.7834ZM28.7268 100.485C29.1111 99.2082 29.4943 98.0579 29.8775 96.8441C27.2595 96.7172 22.4019 96.5238 22.3376 96.5882C24.4463 97.8695 26.4907 99.1477 28.7268 100.489V100.485ZM21.5713 86.8124C21.4428 89.4304 21.2512 94.2876 21.3154 94.2876C22.5935 92.2437 23.8716 90.1989 25.2769 87.9627C23.9989 87.5839 22.8458 87.1991 21.5713 86.8124ZM20.1016 94.0962C20.1659 94.0962 20.4206 89.3045 20.5491 86.7489C19.271 87.0038 18.0572 87.3241 16.7792 87.5819C17.9287 89.8826 19.0152 91.9909 20.1016 94.1001V94.0962ZM28.152 101.38C26.0433 100.039 22.0187 97.6107 21.9545 97.6751C23.0409 99.7189 24.1262 101.764 25.2127 103.936C26.2349 103.115 27.1298 102.282 28.152 101.384V101.38ZM18.3761 95.4389C18.3761 95.3744 14.5431 92.8209 12.4345 91.4772C12.0513 92.691 11.6669 93.8403 11.2837 95.0551C13.8399 95.186 16.1401 95.3139 18.3761 95.4419V95.4389ZM29.1742 92.3707C26.9382 93.4575 24.8295 94.48 22.7851 95.5014C22.7851 95.5658 27.4499 95.8217 29.9417 95.9496C29.6859 94.6743 29.43 93.525 29.1742 92.3747V92.3707ZM24.319 104.384C23.1683 102.211 20.9965 98.1848 20.9965 98.1848C20.9323 100.422 20.8037 102.723 20.7407 105.15C21.9545 104.9 23.0409 104.643 24.319 104.388V104.384ZM26.1778 88.6053C24.8997 90.6501 23.6859 92.5026 22.4079 94.356C22.4709 94.4205 26.4967 92.3747 28.6696 91.2888C27.7688 90.3943 27.0024 89.4998 26.1778 88.6053ZM19.5959 105.09C19.7875 102.727 19.9791 98.2533 19.916 98.2533C18.7022 100.106 17.5515 102.023 16.2103 104.067C17.4182 104.45 18.4428 104.77 19.5899 105.09H19.5959Z" fill="#0F2837"/>
<path d="M189.421 70.9694C190.38 70.9694 191.274 70.9064 192.168 70.9694C192.68 71.0337 193.953 72.5033 194.342 72.8223C193.509 72.6949 191.658 72.376 191.529 72.3118C190.891 71.9286 190.251 71.4811 189.421 70.9694Z" fill="#0F2837"/>
<path d="M127.125 68.4144C125.975 68.5417 125.017 68.6774 124.058 68.7976C121.888 69.0701 119.713 69.245 117.54 69.4997C117.284 69.4997 116.902 69.4997 116.774 69.3081C115.623 67.9669 114.474 66.5615 113.196 65.0241C114.538 64.8325 120.359 64.0387 122.014 63.746C122.306 63.6675 122.617 63.6804 122.902 63.7832C123.188 63.8859 123.435 64.0736 123.61 64.3208C124.625 65.6095 125.846 66.9447 127.125 68.4144Z" fill="#FF9619"/>
<path d="M155.814 64.6449C155.844 64.6686 155.866 64.7017 155.876 64.7391C155.887 64.7766 155.884 64.8164 155.87 64.8525C155.855 64.8885 155.829 64.9189 155.797 64.939C155.763 64.9591 155.724 64.9678 155.686 64.9638C154.818 65.0662 151.224 65.6255 147.507 65.923C146.456 65.923 147.2 66.011 143.035 61.639C143.004 61.6153 142.982 61.5822 142.971 61.5447C142.962 61.5072 142.964 61.4674 142.978 61.4314C142.992 61.3953 143.018 61.365 143.052 61.3449C143.085 61.3247 143.124 61.316 143.162 61.3201C151.254 60.2039 151.254 59.9599 151.533 60.2336C153.002 61.7032 154.391 63.1907 155.814 64.6449Z" fill="#FF9619"/>
<path d="M133.003 62.472C135.953 62.1031 139.76 61.7485 141.245 61.514C141.539 61.4579 141.841 61.4817 142.122 61.5829C142.403 61.6839 142.651 61.8588 142.842 62.0888C143.954 63.4097 145.142 64.7068 146.357 66.1146C144.537 66.374 144.804 66.2883 137.731 67.1368C137.463 67.1417 137.198 67.0755 136.964 66.9452C135.622 65.6029 134.346 64.1975 133.003 62.7921V62.472Z" fill="#FF9619"/>
<path d="M136.39 67.3283C134.217 67.5842 132.106 67.7091 130 68.1613C129.267 68.3606 128.487 68.304 127.791 68.0013C127.094 67.6984 126.522 67.1673 126.167 66.4953C125.468 65.5634 124.721 64.6678 123.93 63.8119C123.906 63.7802 123.89 63.743 123.884 63.7037C123.877 63.6644 123.88 63.6242 123.893 63.5865C123.906 63.5488 123.928 63.5147 123.956 63.4872C123.985 63.4597 124.02 63.4396 124.059 63.4287C131.848 62.5957 130.733 62.6695 131.598 62.5957C131.981 62.5957 132.174 62.8492 132.431 63.1062C133.846 64.4208 135.169 65.8315 136.39 67.3283Z" fill="#FF9619"/>
<path d="M104.379 66.3697C106.551 66.0496 107.768 65.8212 110.385 65.4749C111.921 65.2714 112.554 64.6728 113.323 65.9854C114.569 68.1131 115.244 68.1952 116.2 69.628C112.489 70.0397 110.78 70.3265 108.532 70.5229C107.556 70.5229 107.461 70.1206 104.315 66.6244C104.29 66.6093 104.27 66.5865 104.258 66.5592C104.247 66.5319 104.244 66.5016 104.252 66.473C104.259 66.4443 104.275 66.4187 104.299 66.4001C104.321 66.3816 104.349 66.3708 104.379 66.3697Z" fill="#FF9619"/>
</svg>
